<?xml version="1.0" encoding="UTF-8"?>
<svg id="Layer_1" xmlns="http://www.w3.org/2000/svg" version="1.1" viewBox="0 0 32 32">
  <!-- Generator: Adobe Illustrator 30.1.0, SVG Export Plug-In . SVG Version: 2.1.1 Build 136)  -->
  <defs>
    <style>
      .st0 {
        fill: #231f20;
      }
    </style>
  </defs>
  <path class="st0" d="M7,2c-2.7,0-5,2.3-5,5v16c0,2.7,2.3,5,5,5h16c2.7,0,5-2.3,5-5V7c0-2.7-2.3-5-5-5H7ZM7,4h16c1.7,0,3,1.3,3,3v16c0,1.7-1.3,3-3,3h-3.2v-8.1h2.8l.4-3.2h-3.2v-2.1c0-.9.3-1.6,1.6-1.6h1.7v-2.8c-.3,0-1.3-.1-2.5-.1-2.5,0-4.2,1.5-4.2,4.2v2.4h-2.5v3.2h2.5v8.1H7c-1.7,0-3-1.3-3-3V7c0-1.7,1.3-3,3-3Z"/>
</svg>