<?xml version="1.0" encoding="UTF-8"?>
<svg id="Layer_1" xmlns="http://www.w3.org/2000/svg" version="1.1" viewBox="0 0 32 32">
  <!-- Generator: Adobe Illustrator 30.1.0, SVG Export Plug-In . SVG Version: 2.1.1 Build 136)  -->
  <defs>
    <style>
      .st0 {
        fill: #231f20;
      }
    </style>
  </defs>
  <path class="st0" d="M9.5,2c-4.1,0-7.5,3.4-7.5,7.5v10.9c0,4.2,3.4,7.6,7.5,7.6h10.9c4.1,0,7.5-3.4,7.5-7.5v-11c.1-4.1-3.3-7.5-7.4-7.5h-11ZM9.5,4h10.9c3.1,0,5.6,2.5,5.6,5.5v10.9c0,3.1-2.5,5.5-5.5,5.5h-11c-3,.1-5.5-2.4-5.5-5.4v-11c0-3,2.5-5.5,5.5-5.5ZM23,6c-.6,0-1,.4-1,1s.4,1,1,1,1-.4,1-1-.4-1-1-1ZM15,8c-3.9,0-7,3.1-7,7s3.1,7,7,7,7-3.1,7-7-3.1-7-7-7ZM15,10c2.8,0,5,2.2,5,5s-2.2,5-5,5-5-2.2-5-5,2.2-5,5-5Z"/>
</svg>